<mxfile host="app.diagrams.net" modified="2023-05-30T15:25:16.623Z" agent="Mozilla/5.0 (Macintosh; Intel Mac OS X 10_15_7) AppleWebKit/605.1.15 (KHTML, like Gecko) Version/16.3 Safari/605.1.15" etag="XUnirVQ6xnfK7cYKvUc_" version="21.3.2" type="github">
  <diagram name="第 1 页" id="R_w_jgzeXsO0998Vgt1b">
    <mxGraphModel dx="2442" dy="1148" grid="1" gridSize="10" guides="1" tooltips="1" connect="1" arrows="1" fold="1" page="0" pageScale="1" pageWidth="827" pageHeight="1169" math="0" shadow="0">
      <root>
        <mxCell id="0" />
        <mxCell id="1" parent="0" />
        <mxCell id="yvMUyKPs4t0VUk9u0G-2-4" value="启动" style="text;strokeColor=none;fillColor=none;html=1;fontSize=16;fontStyle=0;verticalAlign=middle;align=center;" parent="1" vertex="1">
          <mxGeometry x="90" y="200" width="100" height="40" as="geometry" />
        </mxCell>
        <mxCell id="yvMUyKPs4t0VUk9u0G-2-6" value="" style="endArrow=classic;html=1;rounded=0;align=center;" parent="1" edge="1">
          <mxGeometry width="50" height="50" relative="1" as="geometry">
            <mxPoint x="160" y="219.66" as="sourcePoint" />
            <mxPoint x="200" y="220" as="targetPoint" />
          </mxGeometry>
        </mxCell>
        <mxCell id="yvMUyKPs4t0VUk9u0G-2-7" value="版本" style="rounded=0;whiteSpace=wrap;html=1;dashed=1;dashPattern=1 2;strokeColor=default;fontSize=16;fillColor=none;gradientColor=default;align=center;" parent="1" vertex="1">
          <mxGeometry x="210" y="200" width="80" height="40" as="geometry" />
        </mxCell>
        <mxCell id="yvMUyKPs4t0VUk9u0G-2-8" value="版本" style="rounded=1;whiteSpace=wrap;html=1;strokeColor=default;fontSize=16;fillColor=none;gradientColor=default;align=center;" parent="1" vertex="1">
          <mxGeometry x="520" y="80" width="120" height="30" as="geometry" />
        </mxCell>
        <mxCell id="yvMUyKPs4t0VUk9u0G-2-9" value="" style="shape=flexArrow;endArrow=classic;html=1;rounded=0;fontSize=16;align=center;" parent="1" edge="1">
          <mxGeometry width="50" height="50" relative="1" as="geometry">
            <mxPoint x="579.66" y="120" as="sourcePoint" />
            <mxPoint x="579.66" y="170" as="targetPoint" />
          </mxGeometry>
        </mxCell>
        <mxCell id="yvMUyKPs4t0VUk9u0G-2-10" value="大小" style="rounded=1;whiteSpace=wrap;html=1;strokeColor=default;fontSize=16;fillColor=none;gradientColor=default;align=center;" parent="1" vertex="1">
          <mxGeometry x="520" y="180" width="120" height="30" as="geometry" />
        </mxCell>
        <mxCell id="yvMUyKPs4t0VUk9u0G-2-11" value="" style="shape=flexArrow;endArrow=classic;html=1;rounded=0;fontSize=16;align=center;" parent="1" edge="1">
          <mxGeometry width="50" height="50" relative="1" as="geometry">
            <mxPoint x="579.66" y="220" as="sourcePoint" />
            <mxPoint x="579.66" y="270" as="targetPoint" />
          </mxGeometry>
        </mxCell>
        <mxCell id="yvMUyKPs4t0VUk9u0G-2-12" value="样式" style="rounded=1;whiteSpace=wrap;html=1;strokeColor=default;fontSize=16;fillColor=none;gradientColor=default;align=center;" parent="1" vertex="1">
          <mxGeometry x="520" y="280" width="120" height="30" as="geometry" />
        </mxCell>
        <mxCell id="yvMUyKPs4t0VUk9u0G-2-13" value="" style="shape=flexArrow;endArrow=classic;html=1;rounded=0;fontSize=16;align=center;" parent="1" edge="1">
          <mxGeometry width="50" height="50" relative="1" as="geometry">
            <mxPoint x="579.66" y="320" as="sourcePoint" />
            <mxPoint x="579.66" y="370" as="targetPoint" />
          </mxGeometry>
        </mxCell>
        <mxCell id="yvMUyKPs4t0VUk9u0G-2-14" value="自定义" style="rounded=1;whiteSpace=wrap;html=1;strokeColor=default;fontSize=16;fillColor=none;gradientColor=default;align=center;" parent="1" vertex="1">
          <mxGeometry x="520" y="380" width="120" height="30" as="geometry" />
        </mxCell>
        <mxCell id="yvMUyKPs4t0VUk9u0G-2-15" value="" style="shape=flexArrow;endArrow=classic;html=1;rounded=0;fontSize=16;align=center;" parent="1" edge="1">
          <mxGeometry width="50" height="50" relative="1" as="geometry">
            <mxPoint x="579.66" y="420" as="sourcePoint" />
            <mxPoint x="579.66" y="470" as="targetPoint" />
          </mxGeometry>
        </mxCell>
        <mxCell id="yvMUyKPs4t0VUk9u0G-2-16" value="渲染结果" style="rounded=1;whiteSpace=wrap;html=1;strokeColor=none;fontSize=16;fillColor=none;gradientColor=default;align=center;" parent="1" vertex="1">
          <mxGeometry x="520" y="480" width="120" height="30" as="geometry" />
        </mxCell>
        <mxCell id="yvMUyKPs4t0VUk9u0G-2-17" value="Manager" style="swimlane;fontStyle=0;childLayout=stackLayout;horizontal=1;startSize=26;fillColor=none;horizontalStack=0;resizeParent=1;resizeParentMax=0;resizeLast=0;collapsible=1;marginBottom=0;html=1;strokeColor=default;fontSize=14;align=center;" parent="1" vertex="1">
          <mxGeometry x="6" y="729" width="224" height="78" as="geometry">
            <mxRectangle x="157" y="736" width="98" height="31" as="alternateBounds" />
          </mxGeometry>
        </mxCell>
        <mxCell id="yvMUyKPs4t0VUk9u0G-2-19" value="registModifier(Modifier) -&amp;gt; bool" style="text;strokeColor=none;fillColor=none;align=center;verticalAlign=top;spacingLeft=4;spacingRight=4;overflow=hidden;rotatable=0;points=[[0,0.5],[1,0.5]];portConstraint=eastwest;whiteSpace=wrap;html=1;fontSize=14;" parent="yvMUyKPs4t0VUk9u0G-2-17" vertex="1">
          <mxGeometry y="26" width="224" height="26" as="geometry" />
        </mxCell>
        <mxCell id="yvMUyKPs4t0VUk9u0G-2-20" value="modifierForType:(type) -&amp;gt;&amp;nbsp;Modifier" style="text;strokeColor=none;fillColor=none;align=center;verticalAlign=top;spacingLeft=4;spacingRight=4;overflow=hidden;rotatable=0;points=[[0,0.5],[1,0.5]];portConstraint=eastwest;whiteSpace=wrap;html=1;fontSize=14;" parent="yvMUyKPs4t0VUk9u0G-2-17" vertex="1">
          <mxGeometry y="52" width="224" height="26" as="geometry" />
        </mxCell>
        <mxCell id="yvMUyKPs4t0VUk9u0G-2-30" value="《Modifier》style" style="swimlane;fontStyle=1;align=center;verticalAlign=top;childLayout=stackLayout;horizontal=1;startSize=26;horizontalStack=0;resizeParent=1;resizeParentMax=0;resizeLast=0;collapsible=1;marginBottom=0;labelBackgroundColor=#ffffff;strokeColor=default;fontSize=14;fillColor=none;gradientColor=default;" parent="1" vertex="1">
          <mxGeometry x="134.5" y="949" width="261" height="60" as="geometry" />
        </mxCell>
        <mxCell id="yvMUyKPs4t0VUk9u0G-2-32" value="" style="line;strokeWidth=1;fillColor=none;align=center;verticalAlign=middle;spacingTop=-1;spacingLeft=3;spacingRight=3;rotatable=0;labelPosition=right;points=[];portConstraint=eastwest;strokeColor=inherit;labelBackgroundColor=#ffffff;fontSize=14;" parent="yvMUyKPs4t0VUk9u0G-2-30" vertex="1">
          <mxGeometry y="26" width="261" height="8" as="geometry" />
        </mxCell>
        <mxCell id="yvMUyKPs4t0VUk9u0G-2-33" value="handle:(TabbarItem) -&gt; TabbarItem" style="text;strokeColor=none;fillColor=none;align=center;verticalAlign=top;spacingLeft=4;spacingRight=4;overflow=hidden;rotatable=0;points=[[0,0.5],[1,0.5]];portConstraint=eastwest;fontSize=14;" parent="yvMUyKPs4t0VUk9u0G-2-30" vertex="1">
          <mxGeometry y="34" width="261" height="26" as="geometry" />
        </mxCell>
        <mxCell id="yvMUyKPs4t0VUk9u0G-2-34" value="《Modifier》custom" style="swimlane;fontStyle=1;align=center;verticalAlign=top;childLayout=stackLayout;horizontal=1;startSize=26;horizontalStack=0;resizeParent=1;resizeParentMax=0;resizeLast=0;collapsible=1;marginBottom=0;labelBackgroundColor=#ffffff;strokeColor=default;fontSize=14;fillColor=none;gradientColor=default;" parent="1" vertex="1">
          <mxGeometry x="435" y="949" width="261" height="60" as="geometry" />
        </mxCell>
        <mxCell id="yvMUyKPs4t0VUk9u0G-2-35" value="" style="line;strokeWidth=1;fillColor=none;align=center;verticalAlign=middle;spacingTop=-1;spacingLeft=3;spacingRight=3;rotatable=0;labelPosition=right;points=[];portConstraint=eastwest;strokeColor=inherit;labelBackgroundColor=#ffffff;fontSize=14;" parent="yvMUyKPs4t0VUk9u0G-2-34" vertex="1">
          <mxGeometry y="26" width="261" height="8" as="geometry" />
        </mxCell>
        <mxCell id="yvMUyKPs4t0VUk9u0G-2-36" value="handle:(TabbarItem) -&gt; TabbarItem" style="text;strokeColor=none;fillColor=none;align=center;verticalAlign=top;spacingLeft=4;spacingRight=4;overflow=hidden;rotatable=0;points=[[0,0.5],[1,0.5]];portConstraint=eastwest;fontSize=14;" parent="yvMUyKPs4t0VUk9u0G-2-34" vertex="1">
          <mxGeometry y="34" width="261" height="26" as="geometry" />
        </mxCell>
        <mxCell id="yvMUyKPs4t0VUk9u0G-2-37" value="《Modifier》mode" style="swimlane;fontStyle=1;align=center;verticalAlign=top;childLayout=stackLayout;horizontal=1;startSize=26;horizontalStack=0;resizeParent=1;resizeParentMax=0;resizeLast=0;collapsible=1;marginBottom=0;labelBackgroundColor=#ffffff;strokeColor=default;fontSize=14;fillColor=none;gradientColor=default;" parent="1" vertex="1">
          <mxGeometry x="-169" y="949" width="261" height="60" as="geometry" />
        </mxCell>
        <mxCell id="yvMUyKPs4t0VUk9u0G-2-38" value="" style="line;strokeWidth=1;fillColor=none;align=center;verticalAlign=middle;spacingTop=-1;spacingLeft=3;spacingRight=3;rotatable=0;labelPosition=right;points=[];portConstraint=eastwest;strokeColor=inherit;labelBackgroundColor=#ffffff;fontSize=14;" parent="yvMUyKPs4t0VUk9u0G-2-37" vertex="1">
          <mxGeometry y="26" width="261" height="8" as="geometry" />
        </mxCell>
        <mxCell id="yvMUyKPs4t0VUk9u0G-2-39" value="handle:(TabbarItem) -&gt; TabbarItem" style="text;strokeColor=none;fillColor=none;align=center;verticalAlign=top;spacingLeft=4;spacingRight=4;overflow=hidden;rotatable=0;points=[[0,0.5],[1,0.5]];portConstraint=eastwest;fontSize=14;" parent="yvMUyKPs4t0VUk9u0G-2-37" vertex="1">
          <mxGeometry y="34" width="261" height="26" as="geometry" />
        </mxCell>
        <mxCell id="yvMUyKPs4t0VUk9u0G-2-40" value="《Modifier》version" style="swimlane;fontStyle=1;align=center;verticalAlign=top;childLayout=stackLayout;horizontal=1;startSize=26;horizontalStack=0;resizeParent=1;resizeParentMax=0;resizeLast=0;collapsible=1;marginBottom=0;labelBackgroundColor=#ffffff;strokeColor=default;fontSize=14;fillColor=none;gradientColor=default;" parent="1" vertex="1">
          <mxGeometry x="-472" y="951" width="261" height="60" as="geometry" />
        </mxCell>
        <mxCell id="yvMUyKPs4t0VUk9u0G-2-41" value="" style="line;strokeWidth=1;fillColor=none;align=center;verticalAlign=middle;spacingTop=-1;spacingLeft=3;spacingRight=3;rotatable=0;labelPosition=right;points=[];portConstraint=eastwest;strokeColor=inherit;labelBackgroundColor=#ffffff;fontSize=14;" parent="yvMUyKPs4t0VUk9u0G-2-40" vertex="1">
          <mxGeometry y="26" width="261" height="8" as="geometry" />
        </mxCell>
        <mxCell id="yvMUyKPs4t0VUk9u0G-2-42" value="handle:(TabbarItem) -&gt; TabbarItem" style="text;strokeColor=none;fillColor=none;align=center;verticalAlign=top;spacingLeft=4;spacingRight=4;overflow=hidden;rotatable=0;points=[[0,0.5],[1,0.5]];portConstraint=eastwest;fontSize=14;" parent="yvMUyKPs4t0VUk9u0G-2-40" vertex="1">
          <mxGeometry y="34" width="261" height="26" as="geometry" />
        </mxCell>
        <mxCell id="yvMUyKPs4t0VUk9u0G-2-43" value="" style="strokeWidth=2;html=1;shape=mxgraph.flowchart.annotation_2;align=center;labelPosition=right;pointerEvents=1;labelBackgroundColor=#ffffff;strokeColor=default;fontSize=14;fillColor=default;gradientColor=default;rotation=90;container=0;" parent="1" vertex="1">
          <mxGeometry x="27" y="1328.37" width="73.76" height="200.13" as="geometry">
            <mxRectangle x="236.745" y="810.495" width="50" height="44" as="alternateBounds" />
          </mxGeometry>
        </mxCell>
        <mxCell id="yvMUyKPs4t0VUk9u0G-2-49" value="" style="shape=partialRectangle;whiteSpace=wrap;html=1;bottom=0;right=0;fillColor=none;labelBackgroundColor=#ffffff;strokeColor=default;fontSize=14;strokeWidth=2;align=center;" parent="1" vertex="1">
          <mxGeometry x="-257" y="1429.19" width="219" height="38" as="geometry" />
        </mxCell>
        <mxCell id="yvMUyKPs4t0VUk9u0G-2-50" value="" style="shape=partialRectangle;whiteSpace=wrap;html=1;bottom=0;right=0;fillColor=none;labelBackgroundColor=#ffffff;strokeColor=default;strokeWidth=2;fontSize=14;flipH=1;align=center;" parent="1" vertex="1">
          <mxGeometry x="162" y="1428.19" width="227" height="32.19" as="geometry" />
        </mxCell>
        <mxCell id="yvMUyKPs4t0VUk9u0G-2-53" value="" style="endArrow=classic;html=1;rounded=0;fontSize=14;align=center;" parent="1" edge="1">
          <mxGeometry width="50" height="50" relative="1" as="geometry">
            <mxPoint x="-201" y="980.58" as="sourcePoint" />
            <mxPoint x="-173" y="980.58" as="targetPoint" />
          </mxGeometry>
        </mxCell>
        <mxCell id="yvMUyKPs4t0VUk9u0G-2-54" value="" style="endArrow=classic;html=1;rounded=0;fontSize=14;align=center;" parent="1" edge="1">
          <mxGeometry width="50" height="50" relative="1" as="geometry">
            <mxPoint x="100" y="978.58" as="sourcePoint" />
            <mxPoint x="128" y="978.58" as="targetPoint" />
          </mxGeometry>
        </mxCell>
        <mxCell id="yvMUyKPs4t0VUk9u0G-2-55" value="" style="endArrow=classic;html=1;rounded=0;fontSize=14;align=center;" parent="1" edge="1">
          <mxGeometry width="50" height="50" relative="1" as="geometry">
            <mxPoint x="404" y="980.58" as="sourcePoint" />
            <mxPoint x="432" y="980.58" as="targetPoint" />
          </mxGeometry>
        </mxCell>
        <mxCell id="yvMUyKPs4t0VUk9u0G-2-74" value="Adapter" style="html=1;labelBackgroundColor=#ffffff;strokeColor=default;strokeWidth=2;fontSize=14;fillColor=default;gradientColor=none;align=center;" parent="1" vertex="1">
          <mxGeometry x="-313" y="734" width="110" height="50" as="geometry" />
        </mxCell>
        <mxCell id="yvMUyKPs4t0VUk9u0G-2-75" value="" style="endArrow=classic;html=1;rounded=0;fontSize=14;align=center;" parent="1" edge="1">
          <mxGeometry width="50" height="50" relative="1" as="geometry">
            <mxPoint x="-183" y="757" as="sourcePoint" />
            <mxPoint x="-16" y="757" as="targetPoint" />
          </mxGeometry>
        </mxCell>
        <mxCell id="yvMUyKPs4t0VUk9u0G-2-76" value="旧场景的流程适配" style="text;strokeColor=none;fillColor=none;html=1;fontSize=14;fontStyle=1;verticalAlign=middle;align=center;" parent="1" vertex="1">
          <mxGeometry x="-160" y="721" width="100" height="40" as="geometry" />
        </mxCell>
        <mxCell id="yvMUyKPs4t0VUk9u0G-2-78" value="TabbarItem" style="html=1;labelBackgroundColor=#ffffff;strokeColor=default;strokeWidth=2;fontSize=14;fillColor=default;gradientColor=none;align=center;" parent="1" vertex="1">
          <mxGeometry x="-672" y="959" width="110" height="50" as="geometry" />
        </mxCell>
        <mxCell id="yvMUyKPs4t0VUk9u0G-2-79" value="" style="verticalLabelPosition=bottom;verticalAlign=top;html=1;strokeWidth=2;shape=mxgraph.arrows2.arrow;dy=0.58;dx=30;notch=0;labelBackgroundColor=#ffffff;strokeColor=default;fontSize=14;fillColor=default;gradientColor=none;align=center;" parent="1" vertex="1">
          <mxGeometry x="-550" y="970.5" width="67" height="27" as="geometry" />
        </mxCell>
        <mxCell id="yvMUyKPs4t0VUk9u0G-2-80" value="TabbarItem" style="html=1;labelBackgroundColor=#ffffff;strokeColor=default;strokeWidth=2;fontSize=14;fillColor=default;gradientColor=none;align=center;" parent="1" vertex="1">
          <mxGeometry x="781" y="951" width="110" height="50" as="geometry" />
        </mxCell>
        <mxCell id="yvMUyKPs4t0VUk9u0G-2-82" value="" style="verticalLabelPosition=bottom;verticalAlign=top;html=1;strokeWidth=2;shape=mxgraph.arrows2.arrow;dy=0.58;dx=30;notch=0;labelBackgroundColor=#ffffff;strokeColor=default;fontSize=14;fillColor=default;gradientColor=none;align=center;" parent="1" vertex="1">
          <mxGeometry x="705" y="965.5" width="67" height="27" as="geometry" />
        </mxCell>
        <mxCell id="yvMUyKPs4t0VUk9u0G-2-83" value="Cache" style="html=1;labelBackgroundColor=#ffffff;strokeColor=default;strokeWidth=2;fontSize=14;fillColor=default;gradientColor=none;align=center;" parent="1" vertex="1">
          <mxGeometry x="-193" y="608" width="110" height="50" as="geometry" />
        </mxCell>
        <mxCell id="yvMUyKPs4t0VUk9u0G-2-84" value="Change" style="html=1;labelBackgroundColor=#ffffff;strokeColor=default;strokeWidth=2;fontSize=14;fillColor=default;gradientColor=none;align=center;" parent="1" vertex="1">
          <mxGeometry x="-20" y="560" width="110" height="50" as="geometry" />
        </mxCell>
        <mxCell id="yvMUyKPs4t0VUk9u0G-2-87" value="&lt;interface&gt; Modifier" style="swimlane;fontStyle=1;align=center;verticalAlign=top;childLayout=stackLayout;horizontal=1;startSize=26;horizontalStack=0;resizeParent=1;resizeParentMax=0;resizeLast=0;collapsible=1;marginBottom=0;labelBackgroundColor=#ffffff;strokeColor=default;strokeWidth=2;fontSize=14;fillColor=default;gradientColor=none;" parent="1" vertex="1">
          <mxGeometry x="-183" y="1158" width="160" height="60" as="geometry" />
        </mxCell>
        <mxCell id="yvMUyKPs4t0VUk9u0G-2-89" value="" style="line;strokeWidth=1;fillColor=none;align=center;verticalAlign=middle;spacingTop=-1;spacingLeft=3;spacingRight=3;rotatable=0;labelPosition=right;points=[];portConstraint=eastwest;strokeColor=inherit;labelBackgroundColor=#ffffff;fontSize=14;" parent="yvMUyKPs4t0VUk9u0G-2-87" vertex="1">
          <mxGeometry y="26" width="160" height="8" as="geometry" />
        </mxCell>
        <mxCell id="yvMUyKPs4t0VUk9u0G-2-90" value="handleItem(item) -&gt; item" style="text;strokeColor=none;fillColor=none;align=center;verticalAlign=top;spacingLeft=4;spacingRight=4;overflow=hidden;rotatable=0;points=[[0,0.5],[1,0.5]];portConstraint=eastwest;fontSize=14;" parent="yvMUyKPs4t0VUk9u0G-2-87" vertex="1">
          <mxGeometry y="34" width="160" height="26" as="geometry" />
        </mxCell>
        <mxCell id="yvMUyKPs4t0VUk9u0G-2-108" value="&lt;interface&gt; Pipline" style="swimlane;fontStyle=1;align=center;verticalAlign=top;childLayout=stackLayout;horizontal=1;startSize=26;horizontalStack=0;resizeParent=1;resizeParentMax=0;resizeLast=0;collapsible=1;marginBottom=0;labelBackgroundColor=#ffffff;strokeColor=default;strokeWidth=2;fontSize=14;fillColor=default;gradientColor=none;" parent="1" vertex="1">
          <mxGeometry x="33" y="1161" width="251" height="112" as="geometry" />
        </mxCell>
        <mxCell id="yvMUyKPs4t0VUk9u0G-2-109" value="" style="line;strokeWidth=1;fillColor=none;align=center;verticalAlign=middle;spacingTop=-1;spacingLeft=3;spacingRight=3;rotatable=0;labelPosition=right;points=[];portConstraint=eastwest;strokeColor=inherit;labelBackgroundColor=#ffffff;fontSize=14;" parent="yvMUyKPs4t0VUk9u0G-2-108" vertex="1">
          <mxGeometry y="26" width="251" height="8" as="geometry" />
        </mxCell>
        <mxCell id="yvMUyKPs4t0VUk9u0G-2-110" value="registModifier(modifer) -&gt; bool" style="text;strokeColor=none;fillColor=none;align=center;verticalAlign=top;spacingLeft=4;spacingRight=4;overflow=hidden;rotatable=0;points=[[0,0.5],[1,0.5]];portConstraint=eastwest;fontSize=14;" parent="yvMUyKPs4t0VUk9u0G-2-108" vertex="1">
          <mxGeometry y="34" width="251" height="26" as="geometry" />
        </mxCell>
        <mxCell id="yvMUyKPs4t0VUk9u0G-2-112" value="getModifer(modifierType) -&gt; Modifier" style="text;strokeColor=none;fillColor=none;align=center;verticalAlign=top;spacingLeft=4;spacingRight=4;overflow=hidden;rotatable=0;points=[[0,0.5],[1,0.5]];portConstraint=eastwest;fontSize=14;" parent="yvMUyKPs4t0VUk9u0G-2-108" vertex="1">
          <mxGeometry y="60" width="251" height="26" as="geometry" />
        </mxCell>
        <mxCell id="yvMUyKPs4t0VUk9u0G-2-111" value="handleProcess()" style="text;strokeColor=none;fillColor=none;align=center;verticalAlign=top;spacingLeft=4;spacingRight=4;overflow=hidden;rotatable=0;points=[[0,0.5],[1,0.5]];portConstraint=eastwest;fontSize=14;" parent="yvMUyKPs4t0VUk9u0G-2-108" vertex="1">
          <mxGeometry y="86" width="251" height="26" as="geometry" />
        </mxCell>
        <mxCell id="yvMUyKPs4t0VUk9u0G-2-114" value="item" style="html=1;labelBackgroundColor=#ffffff;strokeColor=default;strokeWidth=2;fontSize=14;fillColor=default;gradientColor=none;align=center;" parent="1" vertex="1">
          <mxGeometry x="-433" y="1500" width="64" height="25" as="geometry" />
        </mxCell>
        <mxCell id="yvMUyKPs4t0VUk9u0G-2-115" value="" style="endArrow=classic;html=1;rounded=0;fontSize=14;align=center;" parent="1" edge="1">
          <mxGeometry width="50" height="50" relative="1" as="geometry">
            <mxPoint x="-364" y="1512" as="sourcePoint" />
            <mxPoint x="-336" y="1512" as="targetPoint" />
          </mxGeometry>
        </mxCell>
        <mxCell id="yvMUyKPs4t0VUk9u0G-2-129" value="&lt;p style=&quot;margin: 4px 0px 0px;&quot;&gt;&lt;b&gt;&amp;lt;Modifier&amp;gt;&lt;/b&gt;&lt;/p&gt;&lt;hr size=&quot;1&quot;&gt;&lt;div style=&quot;height: 2px;&quot;&gt;&lt;b&gt;&lt;font style=&quot;font-size: 18px;&quot;&gt;version&lt;/font&gt;&lt;/b&gt;&lt;/div&gt;" style="verticalAlign=top;align=center;overflow=fill;fontSize=12;fontFamily=Helvetica;html=1;labelBackgroundColor=#ffffff;strokeColor=default;strokeWidth=2;fillColor=default;gradientColor=none;" parent="1" vertex="1">
          <mxGeometry x="-326" y="1486" width="140" height="60" as="geometry" />
        </mxCell>
        <mxCell id="yvMUyKPs4t0VUk9u0G-2-130" value="" style="verticalLabelPosition=bottom;verticalAlign=top;html=1;strokeWidth=2;shape=mxgraph.arrows2.arrow;dy=0.58;dx=30;notch=0;labelBackgroundColor=#ffffff;strokeColor=default;fontSize=14;fillColor=default;gradientColor=none;align=center;" parent="1" vertex="1">
          <mxGeometry x="-175" y="1499" width="54" height="27" as="geometry" />
        </mxCell>
        <mxCell id="yvMUyKPs4t0VUk9u0G-2-133" value="&lt;p style=&quot;margin: 4px 0px 0px;&quot;&gt;&lt;b&gt;&amp;lt;Modifier&amp;gt;&lt;/b&gt;&lt;/p&gt;&lt;hr size=&quot;1&quot;&gt;&lt;div style=&quot;height: 2px;&quot;&gt;&lt;font size=&quot;4&quot;&gt;&lt;b&gt;mode&lt;/b&gt;&lt;/font&gt;&lt;/div&gt;" style="verticalAlign=top;align=center;overflow=fill;fontSize=12;fontFamily=Helvetica;html=1;labelBackgroundColor=#ffffff;strokeColor=default;strokeWidth=2;fillColor=default;gradientColor=none;" parent="1" vertex="1">
          <mxGeometry x="-110" y="1486" width="140" height="60" as="geometry" />
        </mxCell>
        <mxCell id="yvMUyKPs4t0VUk9u0G-2-134" value="" style="verticalLabelPosition=bottom;verticalAlign=top;html=1;strokeWidth=2;shape=mxgraph.arrows2.arrow;dy=0.58;dx=30;notch=0;labelBackgroundColor=#ffffff;strokeColor=default;fontSize=14;fillColor=default;gradientColor=none;align=center;" parent="1" vertex="1">
          <mxGeometry x="41" y="1499" width="54" height="27" as="geometry" />
        </mxCell>
        <mxCell id="yvMUyKPs4t0VUk9u0G-2-135" value="&lt;p style=&quot;margin: 4px 0px 0px;&quot;&gt;&lt;b&gt;&amp;lt;Modifier&amp;gt;&lt;/b&gt;&lt;/p&gt;&lt;hr size=&quot;1&quot;&gt;&lt;div style=&quot;height: 2px;&quot;&gt;&lt;font size=&quot;4&quot;&gt;&lt;b&gt;style&lt;/b&gt;&lt;/font&gt;&lt;/div&gt;" style="verticalAlign=top;align=center;overflow=fill;fontSize=12;fontFamily=Helvetica;html=1;labelBackgroundColor=#ffffff;strokeColor=default;strokeWidth=2;fillColor=default;gradientColor=none;" parent="1" vertex="1">
          <mxGeometry x="106" y="1486" width="140" height="60" as="geometry" />
        </mxCell>
        <mxCell id="yvMUyKPs4t0VUk9u0G-2-136" value="" style="verticalLabelPosition=bottom;verticalAlign=top;html=1;strokeWidth=2;shape=mxgraph.arrows2.arrow;dy=0.58;dx=30;notch=0;labelBackgroundColor=#ffffff;strokeColor=default;fontSize=14;fillColor=default;gradientColor=none;align=center;" parent="1" vertex="1">
          <mxGeometry x="257" y="1499" width="54" height="27" as="geometry" />
        </mxCell>
        <mxCell id="yvMUyKPs4t0VUk9u0G-2-138" value="&lt;p style=&quot;margin: 4px 0px 0px;&quot;&gt;&lt;b&gt;&amp;lt;Modifier&amp;gt;&lt;/b&gt;&lt;/p&gt;&lt;hr size=&quot;1&quot;&gt;&lt;div style=&quot;height: 2px;&quot;&gt;&lt;font size=&quot;4&quot;&gt;&lt;b&gt;custom&lt;/b&gt;&lt;/font&gt;&lt;/div&gt;" style="verticalAlign=top;align=center;overflow=fill;fontSize=12;fontFamily=Helvetica;html=1;labelBackgroundColor=#ffffff;strokeColor=default;strokeWidth=2;fillColor=default;gradientColor=none;" parent="1" vertex="1">
          <mxGeometry x="322.5" y="1486" width="140" height="60" as="geometry" />
        </mxCell>
        <mxCell id="yvMUyKPs4t0VUk9u0G-2-142" value="" style="endArrow=classic;html=1;rounded=0;fontSize=14;align=center;" parent="1" edge="1">
          <mxGeometry width="50" height="50" relative="1" as="geometry">
            <mxPoint x="467" y="1515.5" as="sourcePoint" />
            <mxPoint x="495" y="1515.5" as="targetPoint" />
          </mxGeometry>
        </mxCell>
        <mxCell id="yvMUyKPs4t0VUk9u0G-2-143" value="item" style="html=1;labelBackgroundColor=#ffffff;strokeColor=default;strokeWidth=2;fontSize=14;fillColor=default;gradientColor=none;align=center;" parent="1" vertex="1">
          <mxGeometry x="504" y="1503.5" width="64" height="25" as="geometry" />
        </mxCell>
        <mxCell id="yvMUyKPs4t0VUk9u0G-2-162" value="&lt;p style=&quot;margin: 4px 0px 0px;&quot;&gt;&lt;b&gt;&amp;lt;Pipline&amp;gt;&lt;/b&gt;&lt;/p&gt;&lt;hr size=&quot;1&quot;&gt;&lt;div style=&quot;height: 2px;&quot;&gt;&lt;font size=&quot;4&quot;&gt;&lt;b&gt;TabbarManager&lt;/b&gt;&lt;/font&gt;&lt;/div&gt;" style="verticalAlign=top;align=center;overflow=fill;fontSize=12;fontFamily=Helvetica;html=1;labelBackgroundColor=#ffffff;strokeColor=default;strokeWidth=2;fillColor=default;gradientColor=none;" parent="1" vertex="1">
          <mxGeometry x="-6.119999999999999" y="1321" width="140" height="60" as="geometry" />
        </mxCell>
        <mxCell id="yvMUyKPs4t0VUk9u0G-2-163" value="item" style="swimlane;fontStyle=1;align=center;verticalAlign=top;childLayout=stackLayout;horizontal=1;startSize=26;horizontalStack=0;resizeParent=1;resizeParentMax=0;resizeLast=0;collapsible=1;marginBottom=0;labelBackgroundColor=#ffffff;strokeColor=default;strokeWidth=2;fontSize=18;fillColor=default;gradientColor=none;" parent="1" vertex="1">
          <mxGeometry x="-429" y="1158" width="160" height="164" as="geometry" />
        </mxCell>
        <mxCell id="yvMUyKPs4t0VUk9u0G-2-164" value="icon" style="text;strokeColor=none;fillColor=none;align=center;verticalAlign=top;spacingLeft=4;spacingRight=4;overflow=hidden;rotatable=0;points=[[0,0.5],[1,0.5]];portConstraint=eastwest;fontSize=18;" parent="yvMUyKPs4t0VUk9u0G-2-163" vertex="1">
          <mxGeometry y="26" width="160" height="26" as="geometry" />
        </mxCell>
        <mxCell id="yvMUyKPs4t0VUk9u0G-2-169" value="text" style="text;strokeColor=none;fillColor=none;align=center;verticalAlign=top;spacingLeft=4;spacingRight=4;overflow=hidden;rotatable=0;points=[[0,0.5],[1,0.5]];portConstraint=eastwest;fontSize=18;" parent="yvMUyKPs4t0VUk9u0G-2-163" vertex="1">
          <mxGeometry y="52" width="160" height="26" as="geometry" />
        </mxCell>
        <mxCell id="yvMUyKPs4t0VUk9u0G-2-168" value="badge" style="text;strokeColor=none;fillColor=none;align=center;verticalAlign=top;spacingLeft=4;spacingRight=4;overflow=hidden;rotatable=0;points=[[0,0.5],[1,0.5]];portConstraint=eastwest;fontSize=18;" parent="yvMUyKPs4t0VUk9u0G-2-163" vertex="1">
          <mxGeometry y="78" width="160" height="26" as="geometry" />
        </mxCell>
        <mxCell id="yvMUyKPs4t0VUk9u0G-2-167" value="overLayer" style="text;strokeColor=none;fillColor=none;align=center;verticalAlign=top;spacingLeft=4;spacingRight=4;overflow=hidden;rotatable=0;points=[[0,0.5],[1,0.5]];portConstraint=eastwest;fontSize=18;" parent="yvMUyKPs4t0VUk9u0G-2-163" vertex="1">
          <mxGeometry y="104" width="160" height="26" as="geometry" />
        </mxCell>
        <mxCell id="yvMUyKPs4t0VUk9u0G-2-170" value="..." style="text;strokeColor=none;fillColor=none;align=center;verticalAlign=top;spacingLeft=4;spacingRight=4;overflow=hidden;rotatable=0;points=[[0,0.5],[1,0.5]];portConstraint=eastwest;fontSize=18;" parent="yvMUyKPs4t0VUk9u0G-2-163" vertex="1">
          <mxGeometry y="130" width="160" height="26" as="geometry" />
        </mxCell>
        <mxCell id="yvMUyKPs4t0VUk9u0G-2-165" value="" style="line;strokeWidth=1;fillColor=none;align=center;verticalAlign=middle;spacingTop=-1;spacingLeft=3;spacingRight=3;rotatable=0;labelPosition=right;points=[];portConstraint=eastwest;strokeColor=inherit;labelBackgroundColor=#ffffff;fontSize=18;" parent="yvMUyKPs4t0VUk9u0G-2-163" vertex="1">
          <mxGeometry y="156" width="160" height="8" as="geometry" />
        </mxCell>
        <mxCell id="yvMUyKPs4t0VUk9u0G-2-171" value="版本" style="swimlane;fontStyle=1;align=center;verticalAlign=top;childLayout=stackLayout;horizontal=1;startSize=26;horizontalStack=0;resizeParent=1;resizeParentMax=0;resizeLast=0;collapsible=1;marginBottom=0;labelBackgroundColor=#ffffff;strokeColor=default;strokeWidth=2;fontSize=18;fillColor=default;gradientColor=none;swimlaneLine=1;" parent="1" vertex="1">
          <mxGeometry x="-562" y="1955.25" width="146" height="85" as="geometry" />
        </mxCell>
        <mxCell id="yvMUyKPs4t0VUk9u0G-2-172" value="大陆版" style="text;strokeColor=none;fillColor=none;align=center;verticalAlign=top;spacingLeft=4;spacingRight=4;overflow=hidden;rotatable=0;points=[[0,0.5],[1,0.5]];portConstraint=eastwest;fontSize=18;" parent="yvMUyKPs4t0VUk9u0G-2-171" vertex="1">
          <mxGeometry y="26" width="146" height="25" as="geometry" />
        </mxCell>
        <mxCell id="yvMUyKPs4t0VUk9u0G-2-173" value="" style="line;strokeWidth=1;fillColor=none;align=center;verticalAlign=middle;spacingTop=-1;spacingLeft=3;spacingRight=3;rotatable=0;labelPosition=right;points=[];portConstraint=eastwest;strokeColor=inherit;labelBackgroundColor=#ffffff;fontSize=18;" parent="yvMUyKPs4t0VUk9u0G-2-171" vertex="1">
          <mxGeometry y="51" width="146" height="8" as="geometry" />
        </mxCell>
        <mxCell id="yvMUyKPs4t0VUk9u0G-2-174" value="海外版" style="text;strokeColor=none;fillColor=none;align=center;verticalAlign=top;spacingLeft=4;spacingRight=4;overflow=hidden;rotatable=0;points=[[0,0.5],[1,0.5]];portConstraint=eastwest;fontSize=18;" parent="yvMUyKPs4t0VUk9u0G-2-171" vertex="1">
          <mxGeometry y="59" width="146" height="26" as="geometry" />
        </mxCell>
        <mxCell id="yvMUyKPs4t0VUk9u0G-2-175" value="大小" style="swimlane;fontStyle=1;align=center;verticalAlign=top;childLayout=stackLayout;horizontal=1;startSize=26;horizontalStack=0;resizeParent=1;resizeParentMax=0;resizeLast=0;collapsible=1;marginBottom=0;labelBackgroundColor=#ffffff;strokeColor=default;strokeWidth=2;fontSize=18;fillColor=default;gradientColor=none;swimlaneLine=1;" parent="1" vertex="1">
          <mxGeometry x="-80" y="1955.25" width="146" height="85" as="geometry" />
        </mxCell>
        <mxCell id="yvMUyKPs4t0VUk9u0G-2-176" value="标准" style="text;strokeColor=none;fillColor=none;align=center;verticalAlign=top;spacingLeft=4;spacingRight=4;overflow=hidden;rotatable=0;points=[[0,0.5],[1,0.5]];portConstraint=eastwest;fontSize=18;" parent="yvMUyKPs4t0VUk9u0G-2-175" vertex="1">
          <mxGeometry y="26" width="146" height="25" as="geometry" />
        </mxCell>
        <mxCell id="yvMUyKPs4t0VUk9u0G-2-177" value="" style="line;strokeWidth=1;fillColor=none;align=center;verticalAlign=middle;spacingTop=-1;spacingLeft=3;spacingRight=3;rotatable=0;labelPosition=right;points=[];portConstraint=eastwest;strokeColor=inherit;labelBackgroundColor=#ffffff;fontSize=18;" parent="yvMUyKPs4t0VUk9u0G-2-175" vertex="1">
          <mxGeometry y="51" width="146" height="8" as="geometry" />
        </mxCell>
        <mxCell id="yvMUyKPs4t0VUk9u0G-2-178" value="银发" style="text;strokeColor=none;fillColor=none;align=center;verticalAlign=top;spacingLeft=4;spacingRight=4;overflow=hidden;rotatable=0;points=[[0,0.5],[1,0.5]];portConstraint=eastwest;fontSize=18;" parent="yvMUyKPs4t0VUk9u0G-2-175" vertex="1">
          <mxGeometry y="59" width="146" height="26" as="geometry" />
        </mxCell>
        <mxCell id="yvMUyKPs4t0VUk9u0G-2-179" value="样式" style="swimlane;fontStyle=1;align=center;verticalAlign=top;childLayout=stackLayout;horizontal=1;startSize=26;horizontalStack=0;resizeParent=1;resizeParentMax=0;resizeLast=0;collapsible=1;marginBottom=0;labelBackgroundColor=#ffffff;strokeColor=default;strokeWidth=2;fontSize=18;fillColor=default;gradientColor=none;swimlaneLine=1;" parent="1" vertex="1">
          <mxGeometry x="-320" y="1952.25" width="146" height="110" as="geometry" />
        </mxCell>
        <mxCell id="yvMUyKPs4t0VUk9u0G-2-184" value="常规" style="text;strokeColor=none;fillColor=none;align=center;verticalAlign=top;spacingLeft=4;spacingRight=4;overflow=hidden;rotatable=0;points=[[0,0.5],[1,0.5]];portConstraint=eastwest;fontSize=18;" parent="yvMUyKPs4t0VUk9u0G-2-179" vertex="1">
          <mxGeometry y="26" width="146" height="25" as="geometry" />
        </mxCell>
        <mxCell id="yvMUyKPs4t0VUk9u0G-2-180" value="皮肤氛围" style="text;strokeColor=none;fillColor=none;align=center;verticalAlign=top;spacingLeft=4;spacingRight=4;overflow=hidden;rotatable=0;points=[[0,0.5],[1,0.5]];portConstraint=eastwest;fontSize=18;" parent="yvMUyKPs4t0VUk9u0G-2-179" vertex="1">
          <mxGeometry y="51" width="146" height="25" as="geometry" />
        </mxCell>
        <mxCell id="yvMUyKPs4t0VUk9u0G-2-181" value="" style="line;strokeWidth=1;fillColor=none;align=center;verticalAlign=middle;spacingTop=-1;spacingLeft=3;spacingRight=3;rotatable=0;labelPosition=right;points=[];portConstraint=eastwest;strokeColor=inherit;labelBackgroundColor=#ffffff;fontSize=18;" parent="yvMUyKPs4t0VUk9u0G-2-179" vertex="1">
          <mxGeometry y="76" width="146" height="8" as="geometry" />
        </mxCell>
        <mxCell id="yvMUyKPs4t0VUk9u0G-2-182" value="DarkMode" style="text;strokeColor=none;fillColor=none;align=center;verticalAlign=top;spacingLeft=4;spacingRight=4;overflow=hidden;rotatable=0;points=[[0,0.5],[1,0.5]];portConstraint=eastwest;fontSize=18;" parent="yvMUyKPs4t0VUk9u0G-2-179" vertex="1">
          <mxGeometry y="84" width="146" height="26" as="geometry" />
        </mxCell>
        <mxCell id="yvMUyKPs4t0VUk9u0G-2-185" value="逛逛" style="html=1;labelBackgroundColor=#ffffff;strokeColor=default;strokeWidth=2;fontSize=18;fillColor=default;gradientColor=none;" parent="1" vertex="1">
          <mxGeometry x="-787" y="1980.25" width="110" height="50" as="geometry" />
        </mxCell>
        <mxCell id="yvMUyKPs4t0VUk9u0G-2-186" value="" style="endArrow=classic;html=1;rounded=0;fontSize=18;" parent="1" edge="1">
          <mxGeometry width="50" height="50" relative="1" as="geometry">
            <mxPoint x="-657" y="2003.25" as="sourcePoint" />
            <mxPoint x="-593" y="2003.25" as="targetPoint" />
          </mxGeometry>
        </mxCell>
        <mxCell id="yvMUyKPs4t0VUk9u0G-2-187" value="" style="shape=cross;whiteSpace=wrap;html=1;labelBackgroundColor=#000000;strokeColor=default;strokeWidth=2;fontSize=18;fillColor=#000000;gradientColor=none;rotation=45;" parent="1" vertex="1">
          <mxGeometry x="-397" y="1977.25" width="50" height="50" as="geometry" />
        </mxCell>
        <mxCell id="yvMUyKPs4t0VUk9u0G-2-193" value="" style="shape=cross;whiteSpace=wrap;html=1;labelBackgroundColor=#ffffff;strokeColor=#000000;strokeWidth=2;fontSize=18;fillColor=#000000;gradientColor=none;rotation=45;" parent="1" vertex="1">
          <mxGeometry x="-156" y="1978.75" width="50" height="50" as="geometry" />
        </mxCell>
        <mxCell id="yvMUyKPs4t0VUk9u0G-2-194" value="" style="shape=singleArrow;whiteSpace=wrap;html=1;labelBackgroundColor=#000000;strokeColor=#000000;strokeWidth=2;fontSize=18;fillColor=none;gradientColor=none;arrowWidth=0.36666666666666664;arrowSize=0.475;" parent="1" vertex="1">
          <mxGeometry x="87" y="1973.25" width="80" height="49" as="geometry" />
        </mxCell>
        <mxCell id="yvMUyKPs4t0VUk9u0G-2-195" value="" style="shape=curlyBracket;whiteSpace=wrap;html=1;rounded=1;labelPosition=left;verticalLabelPosition=middle;align=right;verticalAlign=middle;labelBackgroundColor=#000000;strokeColor=#000000;strokeWidth=2;fontSize=18;fillColor=none;gradientColor=none;" parent="1" vertex="1">
          <mxGeometry x="192" y="1783.75" width="20" height="428" as="geometry" />
        </mxCell>
        <mxCell id="yvMUyKPs4t0VUk9u0G-2-196" value="大陆*常规*标准" style="swimlane;fontStyle=0;childLayout=stackLayout;horizontal=1;startSize=26;fillColor=none;horizontalStack=0;resizeParent=1;resizeParentMax=0;resizeLast=0;collapsible=1;marginBottom=0;labelBackgroundColor=none;strokeColor=#000000;strokeWidth=2;fontSize=18;align=center;" parent="1" vertex="1">
          <mxGeometry x="233" y="1791" width="179" height="104" as="geometry" />
        </mxCell>
        <mxCell id="yvMUyKPs4t0VUk9u0G-2-197" value="  icon  " style="text;strokeColor=none;fillColor=none;align=center;verticalAlign=top;spacingLeft=4;spacingRight=4;overflow=hidden;rotatable=0;points=[[0,0.5],[1,0.5]];portConstraint=eastwest;fontSize=18;" parent="yvMUyKPs4t0VUk9u0G-2-196" vertex="1">
          <mxGeometry y="26" width="179" height="26" as="geometry" />
        </mxCell>
        <mxCell id="yvMUyKPs4t0VUk9u0G-2-198" value="text" style="text;strokeColor=none;fillColor=none;align=center;verticalAlign=top;spacingLeft=4;spacingRight=4;overflow=hidden;rotatable=0;points=[[0,0.5],[1,0.5]];portConstraint=eastwest;fontSize=18;" parent="yvMUyKPs4t0VUk9u0G-2-196" vertex="1">
          <mxGeometry y="52" width="179" height="26" as="geometry" />
        </mxCell>
        <mxCell id="yvMUyKPs4t0VUk9u0G-2-199" value="......" style="text;strokeColor=none;fillColor=none;align=center;verticalAlign=middle;spacingLeft=4;spacingRight=4;overflow=hidden;rotatable=0;points=[[0,0.5],[1,0.5]];portConstraint=eastwest;fontSize=18;" parent="yvMUyKPs4t0VUk9u0G-2-196" vertex="1">
          <mxGeometry y="78" width="179" height="26" as="geometry" />
        </mxCell>
        <mxCell id="yvMUyKPs4t0VUk9u0G-2-202" value="海外*常规*标准" style="swimlane;fontStyle=0;childLayout=stackLayout;horizontal=1;startSize=26;fillColor=none;horizontalStack=0;resizeParent=1;resizeParentMax=0;resizeLast=0;collapsible=1;marginBottom=0;labelBackgroundColor=none;strokeColor=#000000;strokeWidth=2;fontSize=18;align=center;" parent="1" vertex="1">
          <mxGeometry x="233" y="1921" width="178" height="104" as="geometry" />
        </mxCell>
        <mxCell id="yvMUyKPs4t0VUk9u0G-2-203" value="  icon  " style="text;strokeColor=none;fillColor=none;align=center;verticalAlign=top;spacingLeft=4;spacingRight=4;overflow=hidden;rotatable=0;points=[[0,0.5],[1,0.5]];portConstraint=eastwest;fontSize=18;" parent="yvMUyKPs4t0VUk9u0G-2-202" vertex="1">
          <mxGeometry y="26" width="178" height="26" as="geometry" />
        </mxCell>
        <mxCell id="yvMUyKPs4t0VUk9u0G-2-204" value="text" style="text;strokeColor=none;fillColor=none;align=center;verticalAlign=top;spacingLeft=4;spacingRight=4;overflow=hidden;rotatable=0;points=[[0,0.5],[1,0.5]];portConstraint=eastwest;fontSize=18;" parent="yvMUyKPs4t0VUk9u0G-2-202" vertex="1">
          <mxGeometry y="52" width="178" height="26" as="geometry" />
        </mxCell>
        <mxCell id="yvMUyKPs4t0VUk9u0G-2-205" value="......" style="text;strokeColor=none;fillColor=none;align=center;verticalAlign=middle;spacingLeft=4;spacingRight=4;overflow=hidden;rotatable=0;points=[[0,0.5],[1,0.5]];portConstraint=eastwest;fontSize=18;" parent="yvMUyKPs4t0VUk9u0G-2-202" vertex="1">
          <mxGeometry y="78" width="178" height="26" as="geometry" />
        </mxCell>
        <mxCell id="yvMUyKPs4t0VUk9u0G-2-206" value="大陆*DM*银发" style="swimlane;fontStyle=0;childLayout=stackLayout;horizontal=1;startSize=26;fillColor=none;horizontalStack=0;resizeParent=1;resizeParentMax=0;resizeLast=0;collapsible=1;marginBottom=0;labelBackgroundColor=none;strokeColor=#000000;strokeWidth=2;fontSize=18;align=center;" parent="1" vertex="1">
          <mxGeometry x="233" y="2051.25" width="179" height="104" as="geometry" />
        </mxCell>
        <mxCell id="yvMUyKPs4t0VUk9u0G-2-207" value="  icon  " style="text;strokeColor=none;fillColor=none;align=center;verticalAlign=top;spacingLeft=4;spacingRight=4;overflow=hidden;rotatable=0;points=[[0,0.5],[1,0.5]];portConstraint=eastwest;fontSize=18;" parent="yvMUyKPs4t0VUk9u0G-2-206" vertex="1">
          <mxGeometry y="26" width="179" height="26" as="geometry" />
        </mxCell>
        <mxCell id="yvMUyKPs4t0VUk9u0G-2-208" value="text" style="text;strokeColor=none;fillColor=none;align=center;verticalAlign=top;spacingLeft=4;spacingRight=4;overflow=hidden;rotatable=0;points=[[0,0.5],[1,0.5]];portConstraint=eastwest;fontSize=18;" parent="yvMUyKPs4t0VUk9u0G-2-206" vertex="1">
          <mxGeometry y="52" width="179" height="26" as="geometry" />
        </mxCell>
        <mxCell id="yvMUyKPs4t0VUk9u0G-2-209" value="......" style="text;strokeColor=none;fillColor=none;align=center;verticalAlign=middle;spacingLeft=4;spacingRight=4;overflow=hidden;rotatable=0;points=[[0,0.5],[1,0.5]];portConstraint=eastwest;fontSize=18;" parent="yvMUyKPs4t0VUk9u0G-2-206" vertex="1">
          <mxGeometry y="78" width="179" height="26" as="geometry" />
        </mxCell>
        <mxCell id="yvMUyKPs4t0VUk9u0G-2-214" value="" style="shape=waypoint;sketch=0;fillStyle=solid;size=6;pointerEvents=1;points=[];fillColor=none;resizable=0;rotatable=0;perimeter=centerPerimeter;snapToPoint=1;labelBackgroundColor=none;strokeColor=#000000;strokeWidth=2;fontSize=18;" parent="1" vertex="1">
          <mxGeometry x="230" y="2187.5" width="20" height="20" as="geometry" />
        </mxCell>
        <mxCell id="yvMUyKPs4t0VUk9u0G-2-215" value="" style="shape=waypoint;sketch=0;fillStyle=solid;size=6;pointerEvents=1;points=[];fillColor=none;resizable=0;rotatable=0;perimeter=centerPerimeter;snapToPoint=1;labelBackgroundColor=none;strokeColor=#000000;strokeWidth=2;fontSize=18;" parent="1" vertex="1">
          <mxGeometry x="254" y="2187.5" width="20" height="20" as="geometry" />
        </mxCell>
        <mxCell id="yvMUyKPs4t0VUk9u0G-2-216" value="" style="shape=waypoint;sketch=0;fillStyle=solid;size=6;pointerEvents=1;points=[];fillColor=none;resizable=0;rotatable=0;perimeter=centerPerimeter;snapToPoint=1;labelBackgroundColor=none;strokeColor=#000000;strokeWidth=2;fontSize=18;" parent="1" vertex="1">
          <mxGeometry x="277" y="2187.5" width="20" height="20" as="geometry" />
        </mxCell>
        <mxCell id="yvMUyKPs4t0VUk9u0G-2-219" value="" style="shape=waypoint;sketch=0;fillStyle=solid;size=6;pointerEvents=1;points=[];fillColor=none;resizable=0;rotatable=0;perimeter=centerPerimeter;snapToPoint=1;labelBackgroundColor=none;strokeColor=#000000;strokeWidth=2;fontSize=18;" parent="1" vertex="1">
          <mxGeometry x="297" y="2187" width="20" height="20" as="geometry" />
        </mxCell>
        <mxCell id="yvMUyKPs4t0VUk9u0G-2-220" value="" style="shape=waypoint;sketch=0;fillStyle=solid;size=6;pointerEvents=1;points=[];fillColor=none;resizable=0;rotatable=0;perimeter=centerPerimeter;snapToPoint=1;labelBackgroundColor=none;strokeColor=#000000;strokeWidth=2;fontSize=18;" parent="1" vertex="1">
          <mxGeometry x="321" y="2187" width="20" height="20" as="geometry" />
        </mxCell>
        <mxCell id="yvMUyKPs4t0VUk9u0G-2-221" value="" style="shape=waypoint;sketch=0;fillStyle=solid;size=6;pointerEvents=1;points=[];fillColor=none;resizable=0;rotatable=0;perimeter=centerPerimeter;snapToPoint=1;labelBackgroundColor=none;strokeColor=#000000;strokeWidth=2;fontSize=18;" parent="1" vertex="1">
          <mxGeometry x="344" y="2187" width="20" height="20" as="geometry" />
        </mxCell>
        <mxCell id="yvMUyKPs4t0VUk9u0G-2-237" value="A" style="ellipse;whiteSpace=wrap;html=1;aspect=fixed;labelBackgroundColor=none;strokeColor=#36393d;strokeWidth=2;fontSize=18;fillColor=#ffcc99;" parent="1" vertex="1">
          <mxGeometry x="-718" y="2480" width="80" height="80" as="geometry" />
        </mxCell>
        <mxCell id="yvMUyKPs4t0VUk9u0G-2-238" value="B" style="rounded=0;whiteSpace=wrap;html=1;labelBackgroundColor=none;strokeColor=#000000;strokeWidth=2;fontSize=18;fillColor=none;gradientColor=none;" parent="1" vertex="1">
          <mxGeometry x="-718" y="2600" width="78" height="120" as="geometry" />
        </mxCell>
        <mxCell id="yvMUyKPs4t0VUk9u0G-2-239" value="C" style="rounded=0;whiteSpace=wrap;html=1;labelBackgroundColor=none;strokeColor=#000000;strokeWidth=2;fontSize=18;fillColor=none;gradientColor=none;" parent="1" vertex="1">
          <mxGeometry x="-718" y="2760" width="78" height="120" as="geometry" />
        </mxCell>
        <mxCell id="yvMUyKPs4t0VUk9u0G-2-241" value="D" style="rounded=0;whiteSpace=wrap;html=1;labelBackgroundColor=none;strokeColor=#000000;strokeWidth=2;fontSize=18;fillColor=none;gradientColor=none;" parent="1" vertex="1">
          <mxGeometry x="-718" y="2920" width="118" height="80" as="geometry" />
        </mxCell>
        <mxCell id="yvMUyKPs4t0VUk9u0G-2-242" value="E" style="rounded=0;whiteSpace=wrap;html=1;labelBackgroundColor=none;strokeColor=#000000;strokeWidth=2;fontSize=18;fillColor=none;gradientColor=none;" parent="1" vertex="1">
          <mxGeometry x="-560" y="2920" width="118" height="80" as="geometry" />
        </mxCell>
        <mxCell id="yvMUyKPs4t0VUk9u0G-2-243" value="F" style="rounded=0;whiteSpace=wrap;html=1;labelBackgroundColor=none;strokeColor=#000000;strokeWidth=2;fontSize=18;fillColor=none;gradientColor=none;" parent="1" vertex="1">
          <mxGeometry x="-400.5" y="2920" width="118" height="80" as="geometry" />
        </mxCell>
        <mxCell id="yvMUyKPs4t0VUk9u0G-2-244" value="G" style="rounded=0;whiteSpace=wrap;html=1;labelBackgroundColor=none;strokeColor=#000000;strokeWidth=2;fontSize=18;fillColor=none;gradientColor=none;" parent="1" vertex="1">
          <mxGeometry x="-239" y="2920" width="118" height="80" as="geometry" />
        </mxCell>
        <mxCell id="yvMUyKPs4t0VUk9u0G-2-245" value="H" style="rounded=0;whiteSpace=wrap;html=1;labelBackgroundColor=none;strokeColor=#000000;strokeWidth=2;fontSize=18;fillColor=none;gradientColor=none;" parent="1" vertex="1">
          <mxGeometry x="-77" y="2920" width="118" height="80" as="geometry" />
        </mxCell>
        <mxCell id="yvMUyKPs4t0VUk9u0G-2-246" value="I" style="rounded=0;whiteSpace=wrap;html=1;labelBackgroundColor=none;strokeColor=#000000;strokeWidth=2;fontSize=18;fillColor=none;gradientColor=none;" parent="1" vertex="1">
          <mxGeometry x="81" y="2920" width="118" height="80" as="geometry" />
        </mxCell>
        <mxCell id="yvMUyKPs4t0VUk9u0G-2-248" value="J" style="rounded=0;whiteSpace=wrap;html=1;labelBackgroundColor=none;strokeColor=#000000;strokeWidth=2;fontSize=18;fillColor=none;gradientColor=none;" parent="1" vertex="1">
          <mxGeometry x="121" y="2760" width="78" height="120" as="geometry" />
        </mxCell>
        <mxCell id="yvMUyKPs4t0VUk9u0G-2-249" value="K" style="rounded=0;whiteSpace=wrap;html=1;labelBackgroundColor=none;strokeColor=#000000;strokeWidth=2;fontSize=18;fillColor=none;gradientColor=none;" parent="1" vertex="1">
          <mxGeometry x="121" y="2600" width="78" height="120" as="geometry" />
        </mxCell>
        <mxCell id="yvMUyKPs4t0VUk9u0G-2-250" value="草地" style="rounded=0;whiteSpace=wrap;html=1;labelBackgroundColor=none;strokeColor=none;strokeWidth=2;fontSize=38;fillColor=#008a00;dashed=1;fontColor=#ffffff;" parent="1" vertex="1">
          <mxGeometry x="-603" y="2498" width="700" height="385" as="geometry" />
        </mxCell>
        <mxCell id="o4FIgxHUoCOTDOJk03lX-1" value="捕获页面" style="rounded=0;whiteSpace=wrap;html=1;" parent="1" vertex="1">
          <mxGeometry x="-948" y="74" width="100" height="49" as="geometry" />
        </mxCell>
        <mxCell id="o4FIgxHUoCOTDOJk03lX-2" value="" style="shape=flexArrow;endArrow=classic;html=1;rounded=0;" parent="1" edge="1">
          <mxGeometry width="50" height="50" relative="1" as="geometry">
            <mxPoint x="-897.5" y="-2" as="sourcePoint" />
            <mxPoint x="-897.5" y="65" as="targetPoint" />
          </mxGeometry>
        </mxCell>
        <mxCell id="o4FIgxHUoCOTDOJk03lX-3" value="optimize signal" style="text;html=1;align=center;verticalAlign=middle;resizable=0;points=[];autosize=1;strokeColor=none;fillColor=none;" parent="1" vertex="1">
          <mxGeometry x="-899" y="7" width="97" height="26" as="geometry" />
        </mxCell>
        <mxCell id="o4FIgxHUoCOTDOJk03lX-4" value="" style="html=1;whiteSpace=wrap;aspect=fixed;shape=isoRectangle;" parent="1" vertex="1">
          <mxGeometry x="-976" y="187" width="150" height="90" as="geometry" />
        </mxCell>
        <mxCell id="o4FIgxHUoCOTDOJk03lX-5" value="捕获" style="rounded=1;whiteSpace=wrap;html=1;fontSize=22;" parent="1" vertex="1">
          <mxGeometry x="-536" y="3157" width="120" height="60" as="geometry" />
        </mxCell>
        <mxCell id="o4FIgxHUoCOTDOJk03lX-6" value="图片回收" style="rounded=1;whiteSpace=wrap;html=1;fontSize=22;" parent="1" vertex="1">
          <mxGeometry x="-295" y="3159" width="120" height="60" as="geometry" />
        </mxCell>
        <mxCell id="o4FIgxHUoCOTDOJk03lX-7" value="还原" style="rounded=1;whiteSpace=wrap;html=1;fontSize=22;" parent="1" vertex="1">
          <mxGeometry x="-54" y="3155" width="120" height="60" as="geometry" />
        </mxCell>
        <mxCell id="o4FIgxHUoCOTDOJk03lX-8" value="" style="shape=flexArrow;endArrow=classic;html=1;rounded=0;" parent="1" edge="1">
          <mxGeometry width="50" height="50" relative="1" as="geometry">
            <mxPoint x="-387" y="3186.5" as="sourcePoint" />
            <mxPoint x="-322" y="3187" as="targetPoint" />
          </mxGeometry>
        </mxCell>
        <mxCell id="o4FIgxHUoCOTDOJk03lX-10" value="" style="shape=flexArrow;endArrow=classic;html=1;rounded=0;dashed=1;" parent="1" edge="1">
          <mxGeometry width="50" height="50" relative="1" as="geometry">
            <mxPoint x="-153" y="3188.5" as="sourcePoint" />
            <mxPoint x="-82" y="3189" as="targetPoint" />
          </mxGeometry>
        </mxCell>
        <mxCell id="o4FIgxHUoCOTDOJk03lX-11" value="返回页面" style="text;html=1;strokeColor=none;fillColor=none;align=center;verticalAlign=middle;whiteSpace=wrap;rounded=0;" parent="1" vertex="1">
          <mxGeometry x="-152" y="3147" width="60" height="30" as="geometry" />
        </mxCell>
        <mxCell id="o4FIgxHUoCOTDOJk03lX-12" value="" style="shape=flexArrow;endArrow=classic;html=1;rounded=0;dashed=1;" parent="1" edge="1">
          <mxGeometry width="50" height="50" relative="1" as="geometry">
            <mxPoint x="-682" y="3187" as="sourcePoint" />
            <mxPoint x="-558" y="3186.5" as="targetPoint" />
          </mxGeometry>
        </mxCell>
        <mxCell id="o4FIgxHUoCOTDOJk03lX-13" value="优化信号" style="text;html=1;strokeColor=none;fillColor=none;align=center;verticalAlign=middle;whiteSpace=wrap;rounded=0;" parent="1" vertex="1">
          <mxGeometry x="-666" y="3144" width="84" height="30" as="geometry" />
        </mxCell>
        <mxCell id="fq9yb3qx-uE5ifq2fDya-1" value="" style="rounded=0;whiteSpace=wrap;html=1;fillColor=#f5f5f5;fontColor=#333333;strokeColor=#666666;" parent="1" vertex="1">
          <mxGeometry x="-601.5" y="3560" width="193" height="290" as="geometry" />
        </mxCell>
        <mxCell id="fq9yb3qx-uE5ifq2fDya-2" value="" style="rounded=0;whiteSpace=wrap;html=1;fillColor=#d5e8d4;strokeColor=#82b366;" parent="1" vertex="1">
          <mxGeometry x="-574" y="3590" width="193" height="290" as="geometry" />
        </mxCell>
        <mxCell id="fq9yb3qx-uE5ifq2fDya-3" value="" style="rounded=0;whiteSpace=wrap;html=1;fillColor=#d5e8d4;strokeColor=#82b366;" parent="1" vertex="1">
          <mxGeometry x="-541.5" y="3620" width="193" height="290" as="geometry" />
        </mxCell>
        <mxCell id="fq9yb3qx-uE5ifq2fDya-4" value="" style="rounded=0;whiteSpace=wrap;html=1;" parent="1" vertex="1">
          <mxGeometry x="-507.5" y="3640" width="193" height="290" as="geometry" />
        </mxCell>
        <mxCell id="fq9yb3qx-uE5ifq2fDya-5" value="" style="rounded=0;whiteSpace=wrap;html=1;" parent="1" vertex="1">
          <mxGeometry x="-477" y="3660" width="193" height="290" as="geometry" />
        </mxCell>
        <mxCell id="fq9yb3qx-uE5ifq2fDya-6" value="" style="shape=flexArrow;endArrow=classic;html=1;rounded=0;" parent="1" edge="1">
          <mxGeometry width="50" height="50" relative="1" as="geometry">
            <mxPoint x="-215" y="3799.29" as="sourcePoint" />
            <mxPoint x="-117" y="3799" as="targetPoint" />
          </mxGeometry>
        </mxCell>
        <mxCell id="fq9yb3qx-uE5ifq2fDya-7" value="" style="rounded=0;whiteSpace=wrap;html=1;fillColor=#f5f5f5;fontColor=#333333;strokeColor=#666666;" parent="1" vertex="1">
          <mxGeometry x="-49" y="3560" width="193" height="290" as="geometry" />
        </mxCell>
        <mxCell id="fq9yb3qx-uE5ifq2fDya-10" value="" style="rounded=0;whiteSpace=wrap;html=1;" parent="1" vertex="1">
          <mxGeometry x="45" y="3640" width="193" height="290" as="geometry" />
        </mxCell>
        <mxCell id="fq9yb3qx-uE5ifq2fDya-11" value="" style="rounded=0;whiteSpace=wrap;html=1;" parent="1" vertex="1">
          <mxGeometry x="75.5" y="3660" width="193" height="290" as="geometry" />
        </mxCell>
        <mxCell id="fq9yb3qx-uE5ifq2fDya-12" value="" style="shape=cross;whiteSpace=wrap;html=1;" parent="1" vertex="1">
          <mxGeometry x="310.5" y="3730" width="80" height="80" as="geometry" />
        </mxCell>
        <mxCell id="fq9yb3qx-uE5ifq2fDya-15" value="" style="rounded=0;whiteSpace=wrap;html=1;dashed=1;" parent="1" vertex="1">
          <mxGeometry x="429.5" y="3560" width="290" height="400" as="geometry" />
        </mxCell>
        <mxCell id="fq9yb3qx-uE5ifq2fDya-16" value="" style="rounded=0;whiteSpace=wrap;html=1;fillColor=#d5e8d4;strokeColor=#82b366;" parent="1" vertex="1">
          <mxGeometry x="465" y="3625" width="193" height="290" as="geometry" />
        </mxCell>
        <mxCell id="fq9yb3qx-uE5ifq2fDya-17" value="" style="rounded=0;whiteSpace=wrap;html=1;fillColor=#d5e8d4;strokeColor=#82b366;" parent="1" vertex="1">
          <mxGeometry x="497.5" y="3655" width="193" height="290" as="geometry" />
        </mxCell>
        <mxCell id="fq9yb3qx-uE5ifq2fDya-18" value="Disk" style="text;strokeColor=none;fillColor=none;html=1;fontSize=24;fontStyle=1;verticalAlign=middle;align=center;" parent="1" vertex="1">
          <mxGeometry x="524.5" y="3570" width="100" height="40" as="geometry" />
        </mxCell>
        <mxCell id="fq9yb3qx-uE5ifq2fDya-24" value="" style="shape=flexArrow;endArrow=classic;html=1;rounded=0;" parent="1" edge="1">
          <mxGeometry width="50" height="50" relative="1" as="geometry">
            <mxPoint x="218.25" y="4380" as="sourcePoint" />
            <mxPoint x="288.25" y="4380" as="targetPoint" />
          </mxGeometry>
        </mxCell>
        <mxCell id="fq9yb3qx-uE5ifq2fDya-25" value="" style="rounded=0;whiteSpace=wrap;html=1;fillColor=#f5f5f5;fontColor=#333333;strokeColor=#666666;" parent="1" vertex="1">
          <mxGeometry x="-597.25" y="4160" width="193" height="290" as="geometry" />
        </mxCell>
        <mxCell id="fq9yb3qx-uE5ifq2fDya-26" value="" style="rounded=0;whiteSpace=wrap;html=1;" parent="1" vertex="1">
          <mxGeometry x="-503.25" y="4240" width="193" height="290" as="geometry" />
        </mxCell>
        <mxCell id="fq9yb3qx-uE5ifq2fDya-27" value="" style="rounded=0;whiteSpace=wrap;html=1;" parent="1" vertex="1">
          <mxGeometry x="-472.75" y="4260" width="193" height="290" as="geometry" />
        </mxCell>
        <mxCell id="fq9yb3qx-uE5ifq2fDya-28" value="" style="shape=cross;whiteSpace=wrap;html=1;" parent="1" vertex="1">
          <mxGeometry x="-237.75" y="4330" width="80" height="80" as="geometry" />
        </mxCell>
        <mxCell id="fq9yb3qx-uE5ifq2fDya-29" value="" style="rounded=0;whiteSpace=wrap;html=1;dashed=1;" parent="1" vertex="1">
          <mxGeometry x="-118.75" y="4160" width="290" height="400" as="geometry" />
        </mxCell>
        <mxCell id="fq9yb3qx-uE5ifq2fDya-30" value="" style="rounded=0;whiteSpace=wrap;html=1;fillColor=#d5e8d4;strokeColor=#82b366;" parent="1" vertex="1">
          <mxGeometry x="-83.25" y="4225" width="193" height="290" as="geometry" />
        </mxCell>
        <mxCell id="fq9yb3qx-uE5ifq2fDya-31" value="" style="rounded=0;whiteSpace=wrap;html=1;fillColor=#d5e8d4;strokeColor=#82b366;" parent="1" vertex="1">
          <mxGeometry x="-50.75" y="4255" width="193" height="290" as="geometry" />
        </mxCell>
        <mxCell id="fq9yb3qx-uE5ifq2fDya-32" value="Disk" style="text;strokeColor=none;fillColor=none;html=1;fontSize=24;fontStyle=1;verticalAlign=middle;align=center;" parent="1" vertex="1">
          <mxGeometry x="-23.75" y="4170" width="100" height="40" as="geometry" />
        </mxCell>
        <mxCell id="fq9yb3qx-uE5ifq2fDya-33" value="Pop" style="text;strokeColor=none;fillColor=none;html=1;fontSize=24;fontStyle=1;verticalAlign=middle;align=center;" parent="1" vertex="1">
          <mxGeometry x="202.25" y="4310" width="100" height="40" as="geometry" />
        </mxCell>
        <mxCell id="fq9yb3qx-uE5ifq2fDya-34" value="" style="rounded=0;whiteSpace=wrap;html=1;fillColor=#f5f5f5;fontColor=#333333;strokeColor=#666666;" parent="1" vertex="1">
          <mxGeometry x="330" y="4160" width="193" height="290" as="geometry" />
        </mxCell>
        <mxCell id="fq9yb3qx-uE5ifq2fDya-35" value="" style="rounded=0;whiteSpace=wrap;html=1;fillColor=#d5e8d4;strokeColor=#82b366;" parent="1" vertex="1">
          <mxGeometry x="389" y="4215" width="193" height="290" as="geometry" />
        </mxCell>
        <mxCell id="fq9yb3qx-uE5ifq2fDya-36" value="" style="rounded=0;whiteSpace=wrap;html=1;" parent="1" vertex="1">
          <mxGeometry x="419.5" y="4235" width="193" height="290" as="geometry" />
        </mxCell>
        <mxCell id="fq9yb3qx-uE5ifq2fDya-37" value="" style="shape=cross;whiteSpace=wrap;html=1;" parent="1" vertex="1">
          <mxGeometry x="650" y="4330" width="80" height="80" as="geometry" />
        </mxCell>
        <mxCell id="fq9yb3qx-uE5ifq2fDya-38" value="" style="rounded=0;whiteSpace=wrap;html=1;dashed=1;" parent="1" vertex="1">
          <mxGeometry x="760" y="4160" width="290" height="400" as="geometry" />
        </mxCell>
        <mxCell id="fq9yb3qx-uE5ifq2fDya-39" value="" style="rounded=0;whiteSpace=wrap;html=1;fillColor=#d5e8d4;strokeColor=#82b366;" parent="1" vertex="1">
          <mxGeometry x="808.5" y="4225" width="193" height="290" as="geometry" />
        </mxCell>
        <mxCell id="fq9yb3qx-uE5ifq2fDya-41" value="Disk" style="text;strokeColor=none;fillColor=none;html=1;fontSize=24;fontStyle=1;verticalAlign=middle;align=center;" parent="1" vertex="1">
          <mxGeometry x="855" y="4170" width="100" height="40" as="geometry" />
        </mxCell>
        <mxCell id="fq9yb3qx-uE5ifq2fDya-62" value="" style="rounded=0;whiteSpace=wrap;html=1;fillColor=#f5f5f5;fontColor=#333333;strokeColor=#666666;" parent="1" vertex="1">
          <mxGeometry x="-600" y="4680" width="193" height="290" as="geometry" />
        </mxCell>
        <mxCell id="fq9yb3qx-uE5ifq2fDya-63" value="" style="rounded=0;whiteSpace=wrap;html=1;" parent="1" vertex="1">
          <mxGeometry x="-506" y="4760" width="193" height="290" as="geometry" />
        </mxCell>
        <mxCell id="fq9yb3qx-uE5ifq2fDya-64" value="" style="rounded=0;whiteSpace=wrap;html=1;" parent="1" vertex="1">
          <mxGeometry x="-475.5" y="4780" width="193" height="290" as="geometry" />
        </mxCell>
        <mxCell id="fq9yb3qx-uE5ifq2fDya-65" value="" style="shape=cross;whiteSpace=wrap;html=1;" parent="1" vertex="1">
          <mxGeometry x="-240.5" y="4850" width="80" height="80" as="geometry" />
        </mxCell>
        <mxCell id="fq9yb3qx-uE5ifq2fDya-66" value="" style="rounded=0;whiteSpace=wrap;html=1;dashed=1;" parent="1" vertex="1">
          <mxGeometry x="-121.5" y="4680" width="290" height="400" as="geometry" />
        </mxCell>
        <mxCell id="fq9yb3qx-uE5ifq2fDya-67" value="" style="rounded=0;whiteSpace=wrap;html=1;fillColor=#d5e8d4;strokeColor=#82b366;" parent="1" vertex="1">
          <mxGeometry x="-86" y="4745" width="193" height="290" as="geometry" />
        </mxCell>
        <mxCell id="fq9yb3qx-uE5ifq2fDya-68" value="" style="rounded=0;whiteSpace=wrap;html=1;fillColor=#d5e8d4;strokeColor=#82b366;" parent="1" vertex="1">
          <mxGeometry x="-53.5" y="4775" width="193" height="290" as="geometry" />
        </mxCell>
        <mxCell id="fq9yb3qx-uE5ifq2fDya-69" value="Disk" style="text;strokeColor=none;fillColor=none;html=1;fontSize=24;fontStyle=1;verticalAlign=middle;align=center;" parent="1" vertex="1">
          <mxGeometry x="-26.5" y="4690" width="100" height="40" as="geometry" />
        </mxCell>
        <mxCell id="fq9yb3qx-uE5ifq2fDya-70" value="" style="shape=flexArrow;endArrow=classic;html=1;rounded=0;" parent="1" edge="1">
          <mxGeometry width="50" height="50" relative="1" as="geometry">
            <mxPoint x="215" y="4910" as="sourcePoint" />
            <mxPoint x="285" y="4910" as="targetPoint" />
          </mxGeometry>
        </mxCell>
        <mxCell id="fq9yb3qx-uE5ifq2fDya-71" value="Push" style="text;strokeColor=none;fillColor=none;html=1;fontSize=24;fontStyle=1;verticalAlign=middle;align=center;" parent="1" vertex="1">
          <mxGeometry x="199" y="4840" width="100" height="40" as="geometry" />
        </mxCell>
        <mxCell id="fq9yb3qx-uE5ifq2fDya-72" value="" style="rounded=0;whiteSpace=wrap;html=1;fillColor=#f5f5f5;fontColor=#333333;strokeColor=#666666;" parent="1" vertex="1">
          <mxGeometry x="321" y="4680" width="193" height="290" as="geometry" />
        </mxCell>
        <mxCell id="fq9yb3qx-uE5ifq2fDya-73" value="" style="rounded=0;whiteSpace=wrap;html=1;" parent="1" vertex="1">
          <mxGeometry x="415" y="4760" width="193" height="290" as="geometry" />
        </mxCell>
        <mxCell id="fq9yb3qx-uE5ifq2fDya-74" value="" style="rounded=0;whiteSpace=wrap;html=1;" parent="1" vertex="1">
          <mxGeometry x="445.5" y="4780" width="193" height="290" as="geometry" />
        </mxCell>
        <mxCell id="fq9yb3qx-uE5ifq2fDya-75" value="" style="shape=cross;whiteSpace=wrap;html=1;" parent="1" vertex="1">
          <mxGeometry x="680.5" y="4850" width="80" height="80" as="geometry" />
        </mxCell>
        <mxCell id="fq9yb3qx-uE5ifq2fDya-76" value="" style="rounded=0;whiteSpace=wrap;html=1;dashed=1;" parent="1" vertex="1">
          <mxGeometry x="799.5" y="4660" width="310.5" height="430" as="geometry" />
        </mxCell>
        <mxCell id="fq9yb3qx-uE5ifq2fDya-77" value="" style="rounded=0;whiteSpace=wrap;html=1;fillColor=#d5e8d4;strokeColor=#82b366;" parent="1" vertex="1">
          <mxGeometry x="835" y="4725" width="193" height="290" as="geometry" />
        </mxCell>
        <mxCell id="fq9yb3qx-uE5ifq2fDya-78" value="" style="rounded=0;whiteSpace=wrap;html=1;fillColor=#d5e8d4;strokeColor=#82b366;" parent="1" vertex="1">
          <mxGeometry x="867.5" y="4755" width="193" height="290" as="geometry" />
        </mxCell>
        <mxCell id="fq9yb3qx-uE5ifq2fDya-79" value="Disk" style="text;strokeColor=none;fillColor=none;html=1;fontSize=24;fontStyle=1;verticalAlign=middle;align=center;" parent="1" vertex="1">
          <mxGeometry x="894.5" y="4670" width="100" height="40" as="geometry" />
        </mxCell>
        <mxCell id="fq9yb3qx-uE5ifq2fDya-80" value="" style="rounded=0;whiteSpace=wrap;html=1;" parent="1" vertex="1">
          <mxGeometry x="891" y="4790" width="193" height="290" as="geometry" />
        </mxCell>
        <mxCell id="fq9yb3qx-uE5ifq2fDya-81" value="应用死亡恢复" style="text;strokeColor=none;fillColor=none;html=1;fontSize=24;fontStyle=1;verticalAlign=middle;align=center;" parent="1" vertex="1">
          <mxGeometry x="-217" y="3730" width="100" height="40" as="geometry" />
        </mxCell>
        <mxCell id="fq9yb3qx-uE5ifq2fDya-82" value="新页面" style="text;strokeColor=none;fillColor=none;html=1;fontSize=24;fontStyle=1;verticalAlign=middle;align=center;" parent="1" vertex="1">
          <mxGeometry x="492" y="4900" width="100" height="40" as="geometry" />
        </mxCell>
        <mxCell id="fq9yb3qx-uE5ifq2fDya-83" value="" style="endArrow=classic;html=1;rounded=0;" parent="1" edge="1">
          <mxGeometry width="50" height="50" relative="1" as="geometry">
            <mxPoint x="-406" y="3612" as="sourcePoint" />
            <mxPoint x="-356" y="3562" as="targetPoint" />
          </mxGeometry>
        </mxCell>
        <mxCell id="fq9yb3qx-uE5ifq2fDya-84" value="&lt;font style=&quot;font-size: 18px;&quot;&gt;RootVc&lt;/font&gt;" style="text;html=1;strokeColor=none;fillColor=none;align=center;verticalAlign=middle;whiteSpace=wrap;rounded=0;" parent="1" vertex="1">
          <mxGeometry x="-519" y="3560" width="60" height="30" as="geometry" />
        </mxCell>
        <mxCell id="fq9yb3qx-uE5ifq2fDya-85" value="&lt;font style=&quot;font-size: 20px;&quot;&gt;不可见区域&lt;/font&gt;" style="text;strokeColor=none;fillColor=none;html=1;fontSize=24;fontStyle=1;verticalAlign=middle;align=center;" parent="1" vertex="1">
          <mxGeometry x="-337.75" y="3533" width="100" height="40" as="geometry" />
        </mxCell>
        <mxCell id="fq9yb3qx-uE5ifq2fDya-91" value="" style="endArrow=classic;html=1;rounded=0;" parent="1" edge="1">
          <mxGeometry width="50" height="50" relative="1" as="geometry">
            <mxPoint x="198.13" y="5720" as="sourcePoint" />
            <mxPoint x="661.13" y="5720" as="targetPoint" />
          </mxGeometry>
        </mxCell>
        <mxCell id="fq9yb3qx-uE5ifq2fDya-92" value="" style="endArrow=classic;html=1;rounded=0;" parent="1" edge="1">
          <mxGeometry width="50" height="50" relative="1" as="geometry">
            <mxPoint x="198.7" y="5720" as="sourcePoint" />
            <mxPoint x="198.7" y="5340" as="targetPoint" />
          </mxGeometry>
        </mxCell>
        <mxCell id="fq9yb3qx-uE5ifq2fDya-93" value="" style="endArrow=none;html=1;rounded=0;" parent="1" target="fq9yb3qx-uE5ifq2fDya-96" edge="1">
          <mxGeometry width="50" height="50" relative="1" as="geometry">
            <mxPoint x="238.63" y="5600" as="sourcePoint" />
            <mxPoint x="358.63" y="5600" as="targetPoint" />
          </mxGeometry>
        </mxCell>
        <mxCell id="fq9yb3qx-uE5ifq2fDya-94" value="" style="endArrow=none;html=1;rounded=0;" parent="1" edge="1">
          <mxGeometry width="50" height="50" relative="1" as="geometry">
            <mxPoint x="358.63" y="5600" as="sourcePoint" />
            <mxPoint x="478.63" y="5520" as="targetPoint" />
          </mxGeometry>
        </mxCell>
        <mxCell id="fq9yb3qx-uE5ifq2fDya-95" value="" style="endArrow=none;html=1;rounded=0;" parent="1" source="fq9yb3qx-uE5ifq2fDya-97" edge="1">
          <mxGeometry width="50" height="50" relative="1" as="geometry">
            <mxPoint x="479.13" y="5520" as="sourcePoint" />
            <mxPoint x="661.13" y="5520" as="targetPoint" />
          </mxGeometry>
        </mxCell>
        <mxCell id="fq9yb3qx-uE5ifq2fDya-96" value="" style="shape=waypoint;sketch=0;fillStyle=solid;size=6;pointerEvents=1;points=[];fillColor=none;resizable=0;rotatable=0;perimeter=centerPerimeter;snapToPoint=1;" parent="1" vertex="1">
          <mxGeometry x="348.63" y="5590" width="20" height="20" as="geometry" />
        </mxCell>
        <mxCell id="fq9yb3qx-uE5ifq2fDya-97" value="" style="shape=waypoint;sketch=0;fillStyle=solid;size=6;pointerEvents=1;points=[];fillColor=none;resizable=0;rotatable=0;perimeter=centerPerimeter;snapToPoint=1;" parent="1" vertex="1">
          <mxGeometry x="469.13" y="5510" width="20" height="20" as="geometry" />
        </mxCell>
        <mxCell id="fq9yb3qx-uE5ifq2fDya-98" value="iPhone 6" style="text;strokeColor=none;fillColor=none;html=1;fontSize=24;fontStyle=1;verticalAlign=middle;align=center;" parent="1" vertex="1">
          <mxGeometry x="313.13" y="5610" width="100" height="40" as="geometry" />
        </mxCell>
        <mxCell id="fq9yb3qx-uE5ifq2fDya-99" value="11寸 iPad&amp;nbsp;" style="text;strokeColor=none;fillColor=none;html=1;fontSize=24;fontStyle=1;verticalAlign=middle;align=center;" parent="1" vertex="1">
          <mxGeometry x="429.13" y="5470" width="100" height="40" as="geometry" />
        </mxCell>
        <mxCell id="fq9yb3qx-uE5ifq2fDya-100" value="&lt;font style=&quot;font-size: 20px;&quot;&gt;1&lt;/font&gt;" style="text;html=1;strokeColor=none;fillColor=none;align=center;verticalAlign=middle;whiteSpace=wrap;rounded=0;" parent="1" vertex="1">
          <mxGeometry x="128.88" y="5585" width="60" height="30" as="geometry" />
        </mxCell>
        <mxCell id="fq9yb3qx-uE5ifq2fDya-101" value="&lt;font style=&quot;font-size: 20px;&quot;&gt;1.375&lt;/font&gt;" style="text;html=1;strokeColor=none;fillColor=none;align=center;verticalAlign=middle;whiteSpace=wrap;rounded=0;" parent="1" vertex="1">
          <mxGeometry x="128.88" y="5505" width="60" height="30" as="geometry" />
        </mxCell>
        <mxCell id="fq9yb3qx-uE5ifq2fDya-102" value="&lt;span style=&quot;font-size: 20px;&quot;&gt;375&lt;/span&gt;" style="text;html=1;strokeColor=none;fillColor=none;align=center;verticalAlign=middle;whiteSpace=wrap;rounded=0;" parent="1" vertex="1">
          <mxGeometry x="330.13" y="5730" width="60" height="30" as="geometry" />
        </mxCell>
        <mxCell id="fq9yb3qx-uE5ifq2fDya-103" value="&lt;span style=&quot;font-size: 20px;&quot;&gt;834&lt;/span&gt;" style="text;html=1;strokeColor=none;fillColor=none;align=center;verticalAlign=middle;whiteSpace=wrap;rounded=0;" parent="1" vertex="1">
          <mxGeometry x="449.13" y="5730" width="60" height="30" as="geometry" />
        </mxCell>
        <mxCell id="fq9yb3qx-uE5ifq2fDya-104" value="屏幕尺寸(pt)" style="text;strokeColor=none;fillColor=none;html=1;fontSize=16;fontStyle=1;verticalAlign=middle;align=center;" parent="1" vertex="1">
          <mxGeometry x="583.13" y="5720" width="100" height="40" as="geometry" />
        </mxCell>
        <mxCell id="fq9yb3qx-uE5ifq2fDya-105" value="换&lt;br&gt;算&lt;br&gt;比&lt;br&gt;例" style="text;strokeColor=none;fillColor=none;html=1;fontSize=16;fontStyle=1;verticalAlign=middle;align=center;" parent="1" vertex="1">
          <mxGeometry x="128.88" y="5360" width="100" height="40" as="geometry" />
        </mxCell>
        <mxCell id="fq9yb3qx-uE5ifq2fDya-108" value="" style="endArrow=none;dashed=1;html=1;dashPattern=1 3;strokeWidth=2;rounded=0;entryX=0.157;entryY=0.579;entryDx=0;entryDy=0;entryPerimeter=0;" parent="1" target="fq9yb3qx-uE5ifq2fDya-97" edge="1">
          <mxGeometry width="50" height="50" relative="1" as="geometry">
            <mxPoint x="199.13" y="5520" as="sourcePoint" />
            <mxPoint x="267.13" y="5481" as="targetPoint" />
          </mxGeometry>
        </mxCell>
        <mxCell id="fq9yb3qx-uE5ifq2fDya-109" value="" style="endArrow=none;dashed=1;html=1;dashPattern=1 3;strokeWidth=2;rounded=0;" parent="1" edge="1">
          <mxGeometry width="50" height="50" relative="1" as="geometry">
            <mxPoint x="478.42" y="5520" as="sourcePoint" />
            <mxPoint x="478.13" y="5720" as="targetPoint" />
          </mxGeometry>
        </mxCell>
        <mxCell id="fq9yb3qx-uE5ifq2fDya-110" value="" style="endArrow=none;dashed=1;html=1;dashPattern=1 3;strokeWidth=2;rounded=0;" parent="1" edge="1">
          <mxGeometry width="50" height="50" relative="1" as="geometry">
            <mxPoint x="358.21000000000004" y="5600" as="sourcePoint" />
            <mxPoint x="359.13" y="5720" as="targetPoint" />
          </mxGeometry>
        </mxCell>
        <mxCell id="fq9yb3qx-uE5ifq2fDya-112" value="" style="shape=partialRectangle;whiteSpace=wrap;html=1;bottom=0;right=0;fillColor=none;" parent="1" vertex="1">
          <mxGeometry x="880" y="5561" width="120" height="60" as="geometry" />
        </mxCell>
        <mxCell id="fq9yb3qx-uE5ifq2fDya-113" value="" style="shape=partialRectangle;whiteSpace=wrap;html=1;bottom=0;right=0;fillColor=none;" parent="1" vertex="1">
          <mxGeometry x="1000" y="5501" width="120" height="60" as="geometry" />
        </mxCell>
        <mxCell id="fq9yb3qx-uE5ifq2fDya-116" value="" style="shape=partialRectangle;whiteSpace=wrap;html=1;bottom=0;right=0;fillColor=none;" parent="1" vertex="1">
          <mxGeometry x="1120" y="5441" width="120" height="60" as="geometry" />
        </mxCell>
        <mxCell id="fq9yb3qx-uE5ifq2fDya-120" value="" style="endArrow=classic;html=1;rounded=0;" parent="1" edge="1">
          <mxGeometry width="50" height="50" relative="1" as="geometry">
            <mxPoint x="841.25" y="5720" as="sourcePoint" />
            <mxPoint x="1304.25" y="5720" as="targetPoint" />
          </mxGeometry>
        </mxCell>
        <mxCell id="fq9yb3qx-uE5ifq2fDya-121" value="" style="endArrow=classic;html=1;rounded=0;" parent="1" edge="1">
          <mxGeometry width="50" height="50" relative="1" as="geometry">
            <mxPoint x="841.8199999999999" y="5720" as="sourcePoint" />
            <mxPoint x="841.8199999999999" y="5340" as="targetPoint" />
          </mxGeometry>
        </mxCell>
        <mxCell id="fq9yb3qx-uE5ifq2fDya-122" value="iPhone 字体区间(pt)" style="text;strokeColor=none;fillColor=none;html=1;fontSize=16;fontStyle=1;verticalAlign=middle;align=center;" parent="1" vertex="1">
          <mxGeometry x="1226.25" y="5720" width="100" height="40" as="geometry" />
        </mxCell>
        <mxCell id="fq9yb3qx-uE5ifq2fDya-123" value="iPad&lt;br&gt;映&lt;br&gt;射&lt;br&gt;效&lt;br&gt;果&lt;br&gt;（pt）" style="text;strokeColor=none;fillColor=none;html=1;fontSize=16;fontStyle=1;verticalAlign=middle;align=center;" parent="1" vertex="1">
          <mxGeometry x="767.5" y="5360" width="100" height="40" as="geometry" />
        </mxCell>
      </root>
    </mxGraphModel>
  </diagram>
</mxfile>
